<?xml version="1.0" encoding="UTF-8" standalone="no"?>
<svg
   xmlns:dc="http://purl.org/dc/elements/1.1/"
   xmlns:cc="http://creativecommons.org/ns#"
   xmlns:rdf="http://www.w3.org/1999/02/22-rdf-syntax-ns#"
   xmlns:svg="http://www.w3.org/2000/svg"
   xmlns="http://www.w3.org/2000/svg"
   xmlns:sodipodi="http://sodipodi.sourceforge.net/DTD/sodipodi-0.dtd"
   xmlns:inkscape="http://www.inkscape.org/namespaces/inkscape"
   width="33.152248mm"
   height="32.974052mm"
   viewBox="0 0 33.152248 32.974052"
   version="1.1"
   id="svg8"
   sodipodi:docname="cat_eye.svg"
   inkscape:export-filename="/Users/hugosundberg/Desktop/ranodm project2/cat_face.png"
   inkscape:export-xdpi="96"
   inkscape:export-ydpi="96"
   inkscape:version="1.0.1 (c497b03c, 2020-09-10)">
  <defs
     id="defs2" />
  <sodipodi:namedview
     id="base"
     pagecolor="#ffffff"
     bordercolor="#666666"
     borderopacity="1.0"
     inkscape:pageopacity="0.0"
     inkscape:pageshadow="2"
     inkscape:zoom="0.57702935"
     inkscape:cx="62.986074"
     inkscape:cy="-72.87624"
     inkscape:document-units="mm"
     inkscape:current-layer="layer2"
     inkscape:document-rotation="0"
     showgrid="false"
     inkscape:window-width="1394"
     inkscape:window-height="915"
     inkscape:window-x="1693"
     inkscape:window-y="0"
     inkscape:window-maximized="0" />
  <metadata
     id="metadata5">
    <rdf:RDF>
      <cc:Work
         rdf:about="">
        <dc:format>image/svg+xml</dc:format>
        <dc:type
           rdf:resource="http://purl.org/dc/dcmitype/StillImage" />
        <dc:title></dc:title>
      </cc:Work>
    </rdf:RDF>
  </metadata>
  <g
     inkscape:label="Layer 1"
     inkscape:groupmode="layer"
     id="layer1"
     style="display:none;opacity:1;mix-blend-mode:normal"
     transform="translate(-104.54145,-163.44426)">
    <path
       id="path16"
       style="fill:#333333;fill-rule:evenodd;stroke-width:0.999999"
       d="M 408.57227,437.14258 A 254.28571,254.28571 0 0 0 154.28516,691.42773 254.28571,254.28571 0 0 0 408.57227,945.71484 254.28571,254.28571 0 0 0 662.85742,691.42773 254.28571,254.28571 0 0 0 408.57227,437.14258 Z m 61.05664,151.42969 a 61.428567,60 0 0 1 0.37109,0 61.428567,60 0 0 1 61.42773,60 61.428567,60 0 0 1 -61.42773,60 61.428567,60 0 0 1 -61.42773,-60 61.428567,60 0 0 1 61.05664,-60 z M 300,591.42773 a 61.428566,59.999999 0 0 1 61.42773,60 61.428566,59.999999 0 0 1 -61.42773,60 61.428566,59.999999 0 0 1 -61.42773,-60 61.428566,59.999999 0 0 1 61.42773,-60 z"
       transform="scale(0.26458333)" />
    <path
       style="fill:none;stroke:#ffffff;stroke-width:1.28364;stroke-linecap:butt;stroke-linejoin:miter;stroke-miterlimit:4;stroke-dasharray:none;stroke-opacity:1"
       d="m 101.63405,197.29081 c 1.37137,25.12884 -5.118307,30.25127 -25.727578,19.9546 -0.962441,-0.48085 -1.955675,-0.99533 -2.980338,-1.54296"
       id="path45"
       sodipodi:nodetypes="csc" />
    <path
       style="fill:none;stroke:#ffffff;stroke-width:1.28364;stroke-linecap:butt;stroke-linejoin:miter;stroke-miterlimit:4;stroke-dasharray:none;stroke-opacity:1"
       d="m 101.63405,197.29081 c -1.37137,25.12884 5.11831,30.25127 25.72759,19.9546 0.96244,-0.48085 1.95568,-0.99533 2.98034,-1.54296"
       id="path45-0"
       sodipodi:nodetypes="csc" />
    <path
       style="fill:#333333;fill-opacity:1;stroke:#000000;stroke-width:0.264583px;stroke-linecap:butt;stroke-linejoin:miter;stroke-opacity:1"
       d="M 55.278116,145.57977 46.838709,81.862247 c 0,0 26.584132,27.006103 28.693983,54.434173"
       id="path887" />
    <path
       style="fill:#333333;fill-opacity:1;stroke:#000000;stroke-width:0.264583px;stroke-linecap:butt;stroke-linejoin:miter;stroke-opacity:1"
       d="m 154.41558,143.85949 8.43941,-63.717521 c 0,0 -26.58414,27.006101 -28.69399,54.434171"
       id="path887-7" />
    <ellipse
       style="fill:#333333;fill-opacity:1;stroke:none;stroke-width:0.865;stroke-miterlimit:4;stroke-dasharray:none;stroke-opacity:1"
       id="path1098"
       cx="79.752396"
       cy="170.68701"
       rx="19.832607"
       ry="20.887533" />
    <ellipse
       style="display:inline;opacity:1;fill:#333333;fill-opacity:1;stroke:none;stroke-width:0.865;stroke-miterlimit:4;stroke-dasharray:none;stroke-opacity:1"
       id="path1098-6"
       cx="124.48125"
       cy="172.58588"
       rx="19.832607"
       ry="20.887533"
       inkscape:export-filename="/Users/hugosundberg/Desktop/ranodm project2/cat_face.png"
       inkscape:export-xdpi="120.40443"
       inkscape:export-ydpi="120.40443" />
  </g>
  <g
     inkscape:groupmode="layer"
     id="layer2"
     inkscape:label="Layer 2"
     style="display:inline;opacity:1;mix-blend-mode:normal"
     transform="translate(-104.54145,-163.44426)">
    <ellipse
       style="display:inline;opacity:1;mix-blend-mode:normal;fill:#ffffff;fill-opacity:1;stroke:none;stroke-width:1.67723;stroke-miterlimit:4;stroke-dasharray:none;stroke-opacity:1;"
       id="path989-4"
       cx="62.183029"
       cy="60.955738"
       rx="62.183029"
       ry="60.955738"
       transform="matrix(0.26457776,0,0,0.26988272,104.75424,163.48039)"
       inkscape:export-filename="/Users/hugosundberg/Desktop/ranodm project2/cat_eye.png"
       inkscape:export-xdpi="120.40443"
       inkscape:export-ydpi="120.40443" />
    <circle
       style="fill:#333333;fill-opacity:1;stroke:none;stroke-width:0.865;stroke-miterlimit:4;stroke-dasharray:none;stroke-opacity:1"
       id="path1029"
       cx="111.50396"
       cy="179.1264"
       r="6.9625111"
       inkscape:export-filename="/Users/hugosundberg/Desktop/ranodm project2/cat_eye.png"
       inkscape:export-xdpi="120.40443"
       inkscape:export-ydpi="120.40443" />
  </g>
</svg>
